<?xml version="1.0" encoding="UTF-8" standalone="no" ?>
<!DOCTYPE svg PUBLIC "-//W3C//DTD SVG 1.1//EN" "http://www.w3.org/Graphics/SVG/1.1/DTD/svg11.dtd">
<svg xmlns="http://www.w3.org/2000/svg" xmlns:xlink="http://www.w3.org/1999/xlink" version="1.1" width="1280" height="1024" viewBox="0 0 1280 1024" xml:space="preserve">
<desc>Created with Fabric.js 5.3.0</desc>
<defs>
</defs>
<g transform="matrix(1 0 0 1 640 512)" id="background-logo"  >
<rect style="stroke: none; stroke-width: 0; stroke-dasharray: none; stroke-linecap: butt; stroke-dashoffset: 0; stroke-linejoin: miter; stroke-miterlimit: 4; fill: rgb(255,255,255); fill-opacity: 0; fill-rule: nonzero; opacity: 1;"  paint-order="stroke"  x="-640" y="-512" rx="0" ry="0" width="1280" height="1024" />
</g>
<g transform="matrix(1.9211538461538462 0 0 1.9211538461538462 640 410.32611395305554)" id="logo-logo"  >
<g style=""  paint-order="stroke"   >
		<g transform="matrix(0.7928169198432159 0 0 0.7928169198432159 36.129943900301726 14.057803131868411)"  >
<linearGradient id="SVGID_285351" gradientUnits="userSpaceOnUse" gradientTransform="matrix(1 0 0 1 189.2917455999999 79.14786330000001)"  x1="0" y1="22.401866882913254" x2="87.55972986834703" y2="154.76533051708677">
<stop offset="0%" style="stop-color:rgb(184,150,74);stop-opacity: 1"/>
<stop offset="100%" style="stop-color:rgb(30,90,160);stop-opacity: 1"/>
</linearGradient>
<path style="stroke: none; stroke-width: 0; stroke-dasharray: none; stroke-linecap: butt; stroke-dashoffset: 0; stroke-linejoin: miter; stroke-miterlimit: 4; fill: url(#SVGID_285351); fill-rule: nonzero; opacity: 1;"  paint-order="stroke"  transform=" translate(-233.07161053417343, -167.73146200000002)" d="M 273.9761738 146.2403549 C 272.2024132 143.5904259 269.4527517 141.3805288 267.3818084 139.5020658 C 262.19410750000003 135.2854302 260.8887202 130.2017601 260.329278 123.3552763 C 259.92618419999997 118.7689925 259.7429719 113.7270958 258.5096471 109.1817796 C 255.6346652 98.2661435 250.438838 88.0106222 243.4986662 79.1478633 C 242.8161199 81.7497729 241.9970375 84.2945295 241.0549182 86.7858267 C 241.0707008 86.8093998 241.0873564 86.8317641 241.103139 86.8554044 C 245.9861353 94.2037071 249.8888654 102.2743818 252.0174319 110.81719079999999 C 254.7163876 122.73612899999999 251.74543419999998 135.4850294 262.9616782 144.4349619 C 266.4858278 147.5275419 270.5240867 150.6397998 270.2326126 155.53831 C 270.1484612 155.8560436 270.12025409999995 155.9948631 269.93670599999996 156.1659195 C 269.3918376 156.7025273 268.7098286 156.9200582 267.50276329999997 157.3225476 C 257.79842349999996 159.68348740000002 256.89283909999995 167.13078380000002 258.64551159999996 175.4571364 C 257.9554434 175.58601629999998 257.10728079999996 175.7898466 256.53313059999994 176.1510327 C 255.84037599999994 176.5263895 255.08899079999995 177.2553433 254.71457429999992 178.0296971 C 253.43638669999993 180.2305948 254.79093509999993 182.96125 256.14951319999994 184.4558269 L 256.58927639999996 185.02628330000002 C 256.66617449999995 185.14797710000002 256.6745023 185.14838 256.71318649999995 185.23353880000002 C 256.9693343999999 185.70191210000002 256.8203065999999 186.75565120000002 256.32527079999994 187.14893970000003 C 255.88785819999995 187.49696240000003 255.46031819999993 187.56660720000002 254.55271899999994 188.09045460000002 C 252.24483549999994 189.28093130000002 250.68363599999995 192.1340862 250.38564739999993 194.4357238 C 249.34016889999992 198.8443024 252.44349449999993 203.9052725 251.60359259999993 207.8706628 C 247.81704909999993 218.2748761 233.11023549999993 215.65846 224.05533209999993 216.20023899999998 C 198.51266829999992 216.93060309999998 197.44549719999992 238.10659599999997 189.29174559999993 256.3150607 C 199.76513369999992 241.5277895 201.65078269999992 220.6976702 224.19314419999992 221.3767913 C 229.6766173999999 221.3189666 235.96748709999991 221.999901 241.7834689999999 221.0884066 C 248.3782373999999 220.095783 255.45152009999993 216.15812970000002 257.2497269999999 209.27195450000002 C 258.3425531999999 205.47291930000003 256.8424020999999 201.52949030000002 256.26670719999987 197.97303670000002 C 256.0868528999999 196.3791303 256.1273503999999 194.22014040000002 257.51366539999987 193.39380470000003 C 261.76797769999985 191.95429900000002 264.27143089999987 187.06687010000005 262.37577499999986 182.73149580000003 C 262.22110569999984 182.28488230000002 261.8912832999999 181.78521250000003 261.53835799999985 181.30092230000002 C 264.40675819999984 180.54933560000003 265.51610569999986 177.43029460000002 265.03241999999983 175.0329541 C 264.61199889999983 172.6497172 264.0911065999998 169.4404804 264.49305869999984 167.51668450000003 C 264.92442689999984 164.8171244 266.94103779999983 164.27957640000002 269.46154959999984 163.53309380000002 C 271.3790324999998 162.9982994 274.28215429999983 161.72138780000003 275.54771589999984 159.5565549 C 278.17810129999987 155.23018000000002 276.40266169999984 150.0690745 273.97617379999986 146.24035460000002 Z" stroke-linecap="round" />
</g>
		<g transform="matrix(0.7928169198432159 0 0 0.7928169198432159 -13.303440486105501 -26.93066832476441)"  >
<radialGradient id="SVGID_285353" gradientUnits="userSpaceOnUse" gradientTransform="matrix(1 0 0 1 98.14852452079634 43.68493918720881)"  cx="72.57151007049362" cy="72.34672878627305" r="72.57151007049362" fx="72.57151007049362" fy="72.34672878627305">
<stop offset="20%" style="stop-color:rgb(200,168,98);stop-opacity: 1"/>
<stop offset="100%" style="stop-color:rgb(30,90,160);stop-opacity: 1"/>
</radialGradient>
<path style="stroke: none; stroke-width: 0; stroke-dasharray: none; stroke-linecap: butt; stroke-dashoffset: 0; stroke-linejoin: miter; stroke-miterlimit: 4; fill: url(#SVGID_285353); fill-rule: nonzero; opacity: 1;"  paint-order="stroke"  transform=" translate(-170.72003459128996, -116.03166797348186)" d="M 220.3557607 113.628438 C 227.644694 104.50825520000001 234.4158243 94.5141875 238.7356175 83.5616805 C 239.67075219999998 81.19073379999999 240.4896331 78.7751258 241.174127 76.3130432 C 241.6481417 74.6079871 242.06910009999999 72.8848651 242.4068473 71.1353492 C 243.3797931 65.73139339999999 243.8763735 59.981026699999994 242.1422372 54.646111299999994 C 241.7392777 53.4064735 241.2164377 52.18919989999999 240.55054710000002 51.00396169999999 C 238.7404529 47.810977599999994 235.4394757 45.37925119999999 231.94460780000003 44.45439199999999 C 219.88167880000003 41.489214399999994 208.80781390000004 47.52044379999999 200.21120980000003 55.24799859999999 C 183.10201870000003 52.95039059999999 164.91350050000003 56.38333699999999 149.47504670000004 64.5806083 C 147.69725650000004 62.485285999999995 145.04981240000004 61.149743799999996 142.09336560000003 61.149743799999996 C 136.75388330000004 61.149743799999996 132.40944240000002 65.49418469999999 132.40944240000002 70.83366699999999 C 132.40944240000002 72.55893819999999 132.86827900000003 74.1768207 133.66244500000002 75.5812689 C 130.57523780000002 78.3600106 127.72738850000002 81.39113929999999 125.17309530000001 84.6629019 C 122.61322780000002 87.92694119999999 120.50386900000001 91.4300026 118.80559610000002 95.0944493 C 117.56192870000001 94.51223999999999 116.18038200000002 94.17738059999999 114.71898210000002 94.17738059999999 C 109.37949980000002 94.17738059999999 105.03505890000002 98.52182149999999 105.03505890000002 103.86130379999999 C 105.03505890000002 108.89158179999998 108.89178450000003 113.03534889999999 113.80285360000002 113.49881949999998 C 112.72769040000001 123.69503859999998 114.13066120000002 134.2249081 117.66065370000003 143.92273339999997 C 117.78080280000003 143.86537879999997 117.89497470000002 143.79754729999996 118.01606400000003 143.74193889999998 C 117.90101910000003 143.8187027 117.79564510000003 143.90594339999998 117.68207770000002 143.9843862 C 119.01412760000002 147.63325179999998 120.64524050000003 151.16405029999999 122.55788790000003 154.5134498 C 116.86608470000003 141.7300291 114.64295700000002 126.99601579999998 117.03149960000003 113.2544245 C 117.22082340000003 113.2077484 117.41209490000003 113.1661764 117.59685180000004 113.1085532 L 135.45312990000005 148.0032358 C 133.98608860000004 149.2745059 133.05417760000006 151.1469245 133.05417760000006 153.24050069999998 C 133.05417760000006 157.06962349999998 136.15830910000005 160.17368789999998 139.98743190000005 160.17368789999998 C 143.81648760000004 160.17368789999998 146.92061910000004 157.06962359999997 146.92061910000004 153.24050069999998 C 146.92061910000004 151.64357209999997 146.37521340000004 150.17713529999997 145.46801720000005 149.00499319999997 L 157.30428150000006 134.1356526 C 158.81551400000006 134.9904641 160.55650060000005 135.4844924 162.41327090000007 135.4844924 C 168.15678730000008 135.4844924 172.82950590000007 130.8117738 172.82950590000007 125.0677202 C 172.82950590000007 123.417198 172.43332950000007 121.8610355 171.74702230000008 120.4728399 L 210.1539673000001 93.2390222 C 211.2788960000001 94.18047 212.72679670000008 94.7486429 214.3084128000001 94.7486429 C 217.8867605000001 94.7486429 220.7875318000001 91.84787159999999 220.7875318000001 88.2695239 C 220.7875318000001 84.6911762 217.8867605000001 81.7903378 214.3084128000001 81.7903378 C 212.1199396000001 81.7903378 210.1888905000001 82.87846280000001 209.0158081000001 84.5399321 L 194.5908647000001 79.1747276 C 194.79261310000012 78.2999025 194.9095385000001 77.3931092 194.9095385000001 76.4579074 C 194.9095385000001 69.7838232 189.4797933000001 64.354078 182.80570910000012 64.354078 C 177.26790360000012 64.354078 172.5977370000001 68.0974376 171.1647458000001 73.18365990000001 L 151.7605659000001 70.5030389 C 151.7486786000001 70.1527999 151.7178522000001 69.808068 151.6694970000001 69.46817170000001 C 178.10350720000008 55.953312300000015 212.39670560000008 56.82007830000001 233.6029205000001 77.76228750000001 C 227.0563058000001 94.5432681 213.6859746000001 108.9349674 201.61585950000008 121.99562420000001 C 189.08536310000008 135.584158 175.72947130000009 148.16878530000002 161.2737686000001 159.6566239 C 149.1409261000001 168.9337595 130.8902178000001 184.7801426 114.8647192000001 181.7735273 C 112.8619432000001 181.33584610000003 111.0207540000001 180.49695150000002 109.3858801000001 179.3660456 C 104.7868359000001 176.18481450000002 101.8526862000001 170.6558741 101.7309253000001 164.9646753 C 101.71850070000009 164.3828689 101.72803740000009 163.799988 101.7756538000001 163.2172413 C 102.2790846000001 154.26751040000002 107.1332021000001 145.4235563 114.7153556000001 140.4410961 C 99.9468220000001 147.0039635 91.7497523000001 169.37298520000002 104.3425731000001 181.8042193 C 104.6743431000001 182.1277958 105.0171945000001 182.4110092 105.3562178000001 182.7081918 C 123.31276560000009 198.44678330000002 151.20790710000009 177.6196861 166.4033763000001 166.2441389 C 186.5222049000001 151.0459833 204.3656554000001 133.0830553 220.3557608000001 113.6284383 Z M 176.2041577 76.4579071 C 176.2041577 75.5695828 176.3829374 74.7229649 176.7024171 73.9486782 C 177.69222 71.5497259 180.05383139999998 69.8558184 182.8057092 69.8558184 C 186.4463141 69.8558184 189.40779799999999 72.8173022 189.40779799999999 76.45790720000001 C 189.40779799999999 76.71909210000001 189.3884559 76.9754415 189.3588384 77.22876880000001 C 189.225526 78.3683383 188.7997992 79.41744340000001 188.1605039 80.30482750000002 C 186.96075910000002 81.97005770000001 185.0103678 83.05999610000002 182.8057092 83.05999610000002 C 182.3852881 83.05999610000002 181.97534389999998 83.01634220000003 181.57654829999998 82.94085440000002 C 180.45470899999998 82.72849470000003 179.4318634 82.23453350000003 178.5872603 81.53083190000002 C 178.3627447 81.34379150000002 178.1553549 81.13814780000003 177.9573674 80.92337040000002 C 177.2105491 80.11301880000002 176.6651434 79.11804460000002 176.3968395 78.01299530000003 C 176.3337763 77.75328790000003 176.2826676 77.48914790000003 176.25150539999999 77.21856060000003 C 176.22262659999998 76.96852420000003 176.2041577 76.71553280000003 176.2041577 76.45790730000003 Z M 176.4410307 86.7336435 L 164.8057089 114.9397354 C 164.03605620000002 114.7578663 163.2376591 114.65148500000001 162.4132711 114.65148500000001 C 160.2836972 114.65148500000001 158.3031512 115.29622020000001 156.6516216 116.39724000000001 L 144.2630341 102.98473240000001 C 144.6038707 102.32307290000001 144.8147528 101.58377650000001 144.8147528 100.78820010000001 C 144.8147528 100.50800890000001 144.7781506 100.2374216 144.7323476 99.9703266 L 173.1258828 83.6931126 C 174.0316686 84.9018568 175.15451529999999 85.9337019 176.4410308 86.7336437 Z M 167.3277654 125.06772 C 167.3277654 127.77775709999999 165.1233082 129.9827516 162.4132711 129.9827516 C 161.8582615 129.9827516 161.3335411 129.8699901 160.8354831 129.6996054 C 160.39336930000002 129.54836129999998 159.9751645 129.3501723 159.5996063 129.0863682 C 159.4329825 128.9693085 159.2805295 128.8349886 159.12995700000002 128.6987211 C 158.78945620000002 128.3905242 158.49301230000003 128.0406882 158.24928900000003 127.6490115 C 157.78111720000004 126.8966861 157.49823960000003 126.0170926 157.49823960000003 125.06772 C 157.49823960000003 124.24749589999999 157.71946440000002 123.4853651 158.07628500000004 122.80483369999999 C 158.60087110000003 121.8044195 159.44184770000004 120.99561259999999 160.48605010000003 120.54866329999999 C 161.07840060000004 120.29513459999998 161.72931450000002 120.1532257 162.41327120000003 120.1532257 C 162.49278850000002 120.1532257 162.56686590000004 120.1729036 162.64544300000003 120.17666449999999 C 164.79160540000004 120.27908339999999 166.56583620000004 121.75525839999999 167.12554690000002 123.74984089999998 C 167.244017 124.17200819999998 167.3277654 124.60821179999998 167.3277654 125.06771999999998 Z M 137.9111831 70.8336668 C 137.9111831 68.5276638 139.7873626 66.6514843 142.0933656 66.6514843 C 142.9984798 66.6514843 143.8314643 66.9477267 144.516697 67.43832990000001 C 145.2839319 67.98769800000001 145.8474037 68.78992330000001 146.1065066 69.72196870000002 C 146.2055675 70.07825210000001 146.27554809999998 70.44622130000002 146.27554809999998 70.83366690000003 C 146.27554809999998 71.55429280000003 146.07561299999998 72.22260120000003 145.7533126 72.81515320000003 C 145.72121019999997 72.87418680000003 145.6919284 72.93483220000003 145.6571396 72.99211960000002 C 145.1582757 73.81247800000003 144.3905035 74.44042330000002 143.4713528 74.76393260000002 C 143.1564399 74.87481360000002 142.825543 74.94432410000002 142.4815499 74.97662810000001 C 142.35172980000002 74.98885120000001 142.22627500000002 75.01584950000002 142.0933656 75.01584950000002 C 141.4000066 75.01584950000002 140.7554728 74.83008520000001 140.1791064 74.53014900000002 C 139.1506865 73.99501880000003 138.3772729 73.05424260000002 138.0700834 71.91265830000002 C 137.97686539999998 71.56624740000002 137.911183 71.20909100000002 137.911183 70.83366700000002 Z M 110.5367997 103.8613036 C 110.5367997 101.5553006 112.41297920000001 99.6791211 114.7189822 99.6791211 C 115.4545176 99.6791211 116.1360565 99.88644380000001 116.737205 100.2213031 C 118.0206982 100.9362204 118.9011648 102.290836 118.9011648 103.8613036 C 118.9011648 104.8712545 118.5266811 105.7863084 117.9284205 106.5098894 C 117.2158537 107.37168550000001 116.17447200000001 107.9382466 114.9909128 108.0160178 C 114.8993067 108.0220622 114.8121331 108.0434862 114.71898230000001 108.0434862 C 114.6862083 108.0434862 114.65585200000001 108.0345539 114.6232123 108.0338152 C 112.36234080000001 107.98149760000001 110.53679980000001 106.13453270000001 110.53679980000001 103.86130370000001 Z M 142.8864572 146.9486234 C 142.00343859999998 146.5409627 141.0237768 146.3072462 139.9874321 146.3072462 C 139.437258 146.3072462 138.9048142 146.3780328 138.3916452 146.49912210000002 L 120.5283153 111.59060450000001 C 122.8756888 109.8218137 124.40290540000001 107.02003610000001 124.40290540000001 103.86130360000001 C 124.40290540000001 101.48055160000001 123.53540070000001 99.30114500000002 122.1048944 97.61294610000002 C 123.8865799 94.02929280000002 126.07431430000001 90.61850910000001 128.71598260000002 87.45876910000001 C 131.25617230000003 84.44483340000001 134.0658075 81.65843540000002 137.09035450000002 79.10924640000002 C 137.9150112 79.60972210000001 138.81777480000002 79.98924280000001 139.77863180000003 80.22625020000002 L 138.65759840000004 96.16974660000002 C 136.64286800000005 96.75014260000002 135.16004410000005 98.58669780000002 135.16004410000005 100.78820000000002 C 135.16004410000005 103.45431450000002 137.32131750000005 105.61558790000002 139.98743200000004 105.61558790000002 C 140.64895720000004 105.61558790000002 141.27871580000004 105.48126810000002 141.85279880000004 105.24043260000002 L 154.23124510000005 118.64199320000002 C 152.83633360000005 120.41414200000001 151.99649880000004 122.64270960000002 151.99649880000004 125.06772000000001 C 151.99649880000004 127.7669443 153.03707460000004 130.2214379 154.72701970000003 132.07384290000002 L 142.88645720000002 146.94862350000002 Z M 207.8613964 87.6324447 C 207.8409126 87.842118 207.8292268 88.0544776 207.8292268 88.2695237 C 207.8292268 89.070943 207.9816127 89.83508859999999 208.24763309999997 90.5435586 L 169.84048669999999 117.7776449 C 169.2480019 117.1740787 168.57908909999998 116.6491568 167.8554409 116.20321489999999 L 179.4565783 88.08006549999999 C 180.5217346 88.38759079999998 181.6429023 88.56173639999999 182.8057092 88.56173639999999 C 187.37768789999998 88.56173639999999 191.363965 86.01261449999998 193.4225508 82.26200159999999 L 207.86139630000002 87.63244459999999 Z M 171.5237829 80.8065791 L 143.08182539999999 97.11153019999999 C 142.7391083 96.82274249999999 142.3654977 96.57149729999999 141.95105379999998 96.38620309999999 L 143.0702739 80.46809319999998 C 146.9535948 80.07722249999999 150.1649807 77.38142329999998 151.3177136 73.77406249999999 L 170.70268579999998 76.45206429999999 C 170.70268579999998 76.45401189999998 170.70241719999999 76.45595959999999 170.70241719999999 76.4579072 C 170.70241719999999 77.9920413 171.00087589999998 79.4547843 171.52378299999998 80.80657919999999 Z M 201.093154 55.3659313 C 207.481137 51.1554744 214.5316525 47.6619497 222.2022556 47.3319259 C 231.8848356 47.082225300000005 237.9716063 50.9282053 237.5026957 61.2465883 C 237.2371454 64.5818171 236.6531227 67.8242309 235.8185935 70.9863885 C 225.9495776 62.304558500000006 213.8436662 57.2293505 201.0931539 55.3659313 Z" stroke-linecap="round" />
</g>
</g>
</g>
<g transform="matrix(1.9211538461538462 0 0 1.9211538461538462 642.3745461538462 655.0691781677676)" id="text-logo"  >
<g style=""  paint-order="stroke"   >
		<g transform="matrix(1 0 0 1 5.684342e-14 0)" id="text-logo-path-0"  >
<linearGradient id="SVGID_285354" gradientUnits="userSpaceOnUse" gradientTransform="matrix(1 0 0 1 2.8799999999999955 -33.84)"  x1="257.6559968566895" y1="-8.358719999999948" x2="257.6559968566895" y2="45.64128000000005">
<stop offset="24.500000000000004%" style="stop-color:rgb(142,142,142);stop-opacity: 1"/>
<stop offset="84.5%" style="stop-color:rgb(61,61,61);stop-opacity: 1"/>
</linearGradient>
<path style="stroke: none; stroke-width: 0; stroke-dasharray: none; stroke-linecap: butt; stroke-dashoffset: 0; stroke-linejoin: miter; stroke-miterlimit: 4; fill: url(#SVGID_285354); fill-rule: nonzero; opacity: 1;"  paint-order="stroke"  transform=" translate(-258.385, 16.8)" d="M 8.64 0 L 8.64 -13.92 L 25.44 -13.92 L 25.44 0 L 31.2 0 L 31.2 -33.6 L 25.44 -33.6 L 25.44 -19.68 L 8.64 -19.68 L 8.64 -33.6 L 2.88 -33.6 L 2.88 0 Z M 48.91 0 L 51.07 -5.28 L 67.87 -5.28 L 70.03 0 L 76.27 0 L 62.59 -33.6 L 56.35 -33.6 L 42.67 0 Z M 53.42 -11.04 L 59.47 -25.92 L 65.52 -11.04 Z M 93.5 0 L 93.5 -33.6 L 87.74 -33.6 L 87.74 0 Z M 113.14 0 L 113.14 -12.72 L 125.09 -12.72 L 132.82 0 L 139.54 0 L 131.38 -13.49 C 135.22 -15.02 137.95 -18.77 137.95 -23.14 C 137.95 -28.9 133.2 -33.6 127.49 -33.6 L 107.38 -33.6 L 107.38 0 Z M 113.14 -18.48 L 113.14 -27.84 L 127.49 -27.84 C 130.03 -27.84 132.19 -25.73 132.19 -23.14 C 132.19 -20.59 130.03 -18.48 127.49 -18.48 Z M 168.91 0 L 194.35 0 L 194.35 -5.76 L 174.67 -5.76 L 174.67 -33.6 L 168.91 -33.6 Z M 221.04 -5.52 C 214.75 -5.52 209.81 -10.51 209.81 -16.85 C 209.81 -23.14 214.75 -28.08 221.04 -28.08 C 227.33 -28.08 232.27 -23.14 232.27 -16.85 C 232.27 -10.51 227.33 -5.52 221.04 -5.52 Z M 221.04 0.24 C 230.5 0.24 238.03 -7.34 238.03 -16.85 C 238.03 -26.3 230.5 -33.84 221.04 -33.84 C 211.58 -33.84 204.05 -26.3 204.05 -16.85 C 204.05 -7.34 211.58 0.24 221.04 0.24 Z M 255.89 0 L 255.89 -25.68 L 273.5 0 L 280.85 0 L 280.85 -33.6 L 275.09 -33.6 L 275.09 -7.92 L 257.47 -33.6 L 250.13 -33.6 L 250.13 0 Z M 309.94 -13.97 L 320.83 -13.97 C 319.58 -8.98 315.26 -5.52 309.94 -5.52 C 303.6 -5.52 298.7 -10.46 298.7 -16.85 C 298.7 -23.18 303.6 -28.08 309.94 -28.08 C 313.1 -28.08 315.94 -26.83 317.9 -24.86 L 321.94 -28.9 C 318.96 -31.92 314.64 -33.84 309.94 -33.84 C 300.43 -33.84 292.94 -26.35 292.94 -16.85 C 292.94 -7.3 300.43 0.24 309.94 0.24 C 320.4 0.24 328.37 -8.88 326.69 -19.73 L 309.94 -19.73 Z M 338.69 0 L 364.13 0 L 364.13 -5.76 L 344.45 -5.76 L 344.45 -15.12 L 359.33 -15.12 L 359.33 -20.88 L 344.45 -20.88 L 344.45 -27.84 L 364.13 -27.84 L 364.13 -33.6 L 338.69 -33.6 Z M 394.56 0 L 408.24 -33.6 L 402 -33.6 L 391.44 -7.68 L 380.88 -33.6 L 374.64 -33.6 L 388.32 0 Z M 425.47 0 L 425.47 -33.6 L 419.71 -33.6 L 419.71 0 Z M 456.86 0 L 456.86 -27.84 L 468.62 -27.84 L 468.62 -33.6 L 439.34 -33.6 L 439.34 -27.84 L 451.1 -27.84 L 451.1 0 Z M 506.59 -33.6 L 496.46 -20.35 L 486.34 -33.6 L 479.04 -33.6 L 493.58 -14.64 L 493.58 0 L 499.34 0 L 499.34 -14.64 L 513.89 -33.6 Z" stroke-linecap="round" />
</g>
</g>
</g>
<g transform="matrix(1.9211538461538462 0 0 1.9211538461538462 640 740.9744945523831)" id="tagline-06313547-a135-437e-bebd-c2e626e62d8b-logo"  >
<g style=""  paint-order="stroke"   >
		<g transform="matrix(1 0 0 1 0 0)" id="tagline-06313547-a135-437e-bebd-c2e626e62d8b-logo-path-0"  >
<path style="stroke: none; stroke-width: 0; stroke-dasharray: none; stroke-linecap: butt; stroke-dashoffset: 0; stroke-linejoin: miter; stroke-miterlimit: 4; fill: rgb(184,150,74); fill-rule: nonzero; opacity: 1;"  paint-order="stroke"  transform=" translate(-131.70000000000002, 10.5)" d="M 5.4 0 L 5.4 -21 L 1.8 -21 L 1.8 0 Z M 25.5 0 L 25.5 -16.05 L 36.51 0 L 41.1 0 L 41.1 -21 L 37.5 -21 L 37.5 -4.95 L 26.49 -21 L 21.9 -21 L 21.9 0 Z M 67.83 -15.81 L 71.43 -15.81 C 71.43 -19.17 68.94 -21.15 64.2 -21.15 C 59.85 -21.15 57.03 -19.47 57.03 -15.81 C 57.03 -12.51 59.07 -10.89 63.81 -9.87 C 68.55 -8.85 69.54 -8.4 69.54 -6.66 C 69.54 -4.29 68.25 -3.45 64.2 -3.45 C 61.29 -3.45 59.85 -4.11 59.28 -5.1 L 56.16 -3.36 C 57.51 -0.93 60.21 0.15 64.2 0.15 C 69.72 0.15 73.14 -1.77 73.14 -6.66 C 73.14 -11.13 69.81 -12.27 64.59 -13.41 C 61.29 -14.1 60.63 -14.61 60.63 -15.81 C 60.63 -17.01 61.44 -17.55 64.2 -17.55 C 66.99 -17.55 67.83 -16.98 67.83 -15.81 Z M 97.23 0 L 97.23 -17.4 L 104.58 -17.4 L 104.58 -21 L 86.28 -21 L 86.28 -17.4 L 93.63 -17.4 L 93.63 0 Z M 124.68 0 L 124.68 -21 L 121.08 -21 L 121.08 0 Z M 152.13 0 L 152.13 -17.4 L 159.48 -17.4 L 159.48 -21 L 141.18 -21 L 141.18 -17.4 L 148.53 -17.4 L 148.53 0 Z M 191.19 -21 L 191.19 -9.51 C 191.19 -4.71 189.84 -3.45 185.19 -3.45 C 180.51 -3.45 179.19 -4.86 179.19 -9.51 L 179.19 -21 L 175.59 -21 L 175.59 -9.51 C 175.59 -2.94 178.38 0.15 185.19 0.15 C 191.76 0.15 194.79 -2.61 194.79 -9.51 L 194.79 -21 Z M 221.85 0 L 221.85 -17.4 L 229.2 -17.4 L 229.2 -21 L 210.9 -21 L 210.9 -17.4 L 218.25 -17.4 L 218.25 0 Z M 245.7 0 L 261.6 0 L 261.6 -3.6 L 249.3 -3.6 L 249.3 -9.45 L 258.6 -9.45 L 258.6 -13.05 L 249.3 -13.05 L 249.3 -17.4 L 261.6 -17.4 L 261.6 -21 L 245.7 -21 Z" stroke-linecap="round" />
</g>
</g>
</g>
</svg>